<svg width="206" height="1994" viewBox="0 0 206 1994" fill="none" xmlns="http://www.w3.org/2000/svg">
<path d="M31.4963 1991.5V1629C31.4962 1612 25.4963 1597.5 49.4963 1597.5H112.996C137.648 1598.42 151.14 1598.66 149.153 1574V1274.5V1229V1201C151.473 1177.09 147.056 1174.06 136.496 1173.5H107.496C96.9963 1171.5 94.9107 1169.85 96.9963 1151.5L98.4963 1067.5C97.4604 1056.05 101.395 1056.92 107.496 1057C107.496 1057 122.996 1056 136.496 1057H165.496C175.903 1057.94 178.41 1053.16 177.153 1035.5V669" stroke="black"/>
<path d="M57.4962 -0.000104529L54.4273 282.232C56.4249 295.634 62.1637 298.102 74.7876 299.895L126.286 300.304L177.784 300.714C184.039 301.219 186.867 302.295 186.708 310.285L186.335 357.284C186.335 357.284 187.485 401.294 186.469 403.286C186.459 409.422 181.77 410.046 170.918 409.663L126.419 409.309L107.42 409.158C97.3827 409.533 94.8031 412.116 93.8368 419.55L93.1491 506.047L93.0617 517.047C93.1595 530.743 97.5855 534.638 113.422 534.71L144.909 536.46C155.351 535.949 158.689 539.264 158.773 553.571L157.863 668.067" stroke="black"/>
<path d="M3.49628 1993.5V1609C2.91938 1602.58 -4.00367 1572 19.9962 1572H73.4963C93.996 1570 129.154 1579 126.654 1561.5V1280V1200.5C126.768 1193.82 124.18 1192.52 116.496 1193H86.4963C76.6734 1192.73 74.3603 1190.4 74.9963 1183V1121.5V1065C74.5301 1046.37 74.4561 1034.64 94.4963 1036H145.496C155.538 1036.88 158.623 1034.4 158.153 1023V1014.5V727V668" stroke="black"/>
<path d="M72.4962 -0.000116115L70.8381 278.363C70.7983 283.363 77.9343 281.419 91.3095 282.026L145.428 282.456L191.927 282.826C205.43 282.433 203.278 298.425 203.119 306.415L202.336 404.912C202.934 423.465 193.191 427.09 162.489 424.596L122.8 424.28C113.637 423.889 111.249 430.689 110.713 435.185C110.177 439.68 110.168 503.727 110.168 503.727C108.013 523.166 116.532 519.088 128.036 520.37L170.527 521.663C176.519 522.711 177.886 524.853 177.876 540.722L177.324 610.22L176.854 669.218" stroke="black"/>
<rect x="130.496" y="275.5" width="11" height="33" rx="3.5" fill="white" stroke="black"/>
<rect x="109.496" y="1030.5" width="11" height="33" rx="3.5" fill="white" stroke="black"/>
<rect x="53.4962" y="1567.5" width="11" height="33" rx="3.5" fill="white" stroke="black"/>
<rect x="117.587" y="468.766" width="11" height="33" rx="3.5" transform="rotate(90.4555 117.587 468.766)" fill="white" stroke="black"/>
<rect x="183.587" y="662.766" width="11" height="33" rx="3.5" transform="rotate(90.4555 183.587 662.766)" fill="white" stroke="black"/>
<rect x="183.587" y="927.766" width="11" height="33" rx="3.5" transform="rotate(90.4555 183.587 927.766)" fill="white" stroke="black"/>
<rect x="101.586" y="1146.77" width="11" height="33" rx="3.5" transform="rotate(90.4555 101.586 1146.77)" fill="white" stroke="black"/>
<rect x="153.587" y="1303.77" width="11" height="33" rx="3.5" transform="rotate(90.4555 153.587 1303.77)" fill="white" stroke="black"/>
<rect x="33.5868" y="1712.77" width="11" height="33" rx="3.5" transform="rotate(90.4555 33.5868 1712.77)" fill="white" stroke="black"/>
<rect x="34.5904" y="1882.77" width="11" height="33" rx="3.5" transform="rotate(90.4555 34.5904 1882.77)" fill="white" stroke="black"/>
<path d="M36.6997 202.29C36.6997 201.148 37.3671 182.865 36.6997 182.294C36.0323 181.722 29.3581 181.151 29.3581 182.294V188.007H24.0188L16.0098 181.151V176.58C11.443 173.443 8.83565 172.86 3.99634 176.58V209.146C8.40533 213.136 11.0612 212.774 16.0098 209.146V202.29L24.0188 196.006H29.3581V202.29C29.3581 203.433 36.6997 203.433 36.6997 202.29Z" stroke="black"/>
<path d="M16.9963 197.004V186.004L23.9963 192.952L16.9963 197.004Z" stroke="black"/>
<path d="M76.9963 178.754C76.9963 177.754 48.9963 177.754 48.9963 178.754C48.9963 179.754 49.7406 181.662 48.9963 183.254C48.1693 185.023 46.8023 185.512 44.9963 186.254C42.8215 187.148 38.9963 186.754 38.9963 186.754V197.754C38.9963 197.754 42.8969 197.643 44.9963 198.754C46.9487 199.788 48.4963 201.254 48.9963 202.754C49.4963 204.254 47.9963 208.254 48.9963 208.254H76.9963C77.9963 208.254 76.9963 202.754 76.9963 202.754C80.3243 195.908 80.6697 191.717 76.9963 183.254V178.754Z" fill="#D9D9D9" stroke="black"/>
</svg>
